<?xml version="1.0" encoding="UTF-8" standalone="no"?>
<!-- Generator: Adobe Illustrator 18.1.1, SVG Export Plug-In . SVG Version: 6.00 Build 0)  -->

<svg
   xmlns:dc="http://purl.org/dc/elements/1.1/"
   xmlns:cc="http://creativecommons.org/ns#"
   xmlns:rdf="http://www.w3.org/1999/02/22-rdf-syntax-ns#"
   xmlns:svg="http://www.w3.org/2000/svg"
   xmlns="http://www.w3.org/2000/svg"
   xmlns:sodipodi="http://sodipodi.sourceforge.net/DTD/sodipodi-0.dtd"
   xmlns:inkscape="http://www.inkscape.org/namespaces/inkscape"
   version="1.1"
   id="Capa_1"
   x="0px"
   y="0px"
   viewBox="0 0 612 612"
   style="enable-background:new 0 0 612 612;"
   xml:space="preserve"
   sodipodi:docname="car.svg"
   inkscape:version="0.92.5 (2060ec1f9f, 2020-04-08)"><metadata
   id="metadata55"><rdf:RDF><cc:Work
       rdf:about=""><dc:format>image/svg+xml</dc:format><dc:type
         rdf:resource="http://purl.org/dc/dcmitype/StillImage" /></cc:Work></rdf:RDF></metadata><defs
   id="defs53" /><sodipodi:namedview
   pagecolor="#ffffff"
   bordercolor="#666666"
   borderopacity="1"
   objecttolerance="10"
   gridtolerance="10"
   guidetolerance="10"
   inkscape:pageopacity="0"
   inkscape:pageshadow="2"
   inkscape:window-width="1918"
   inkscape:window-height="1049"
   id="namedview51"
   showgrid="false"
   inkscape:snap-global="false"
   inkscape:zoom="0.38562092"
   inkscape:cx="348.73416"
   inkscape:cy="121.90371"
   inkscape:window-x="0"
   inkscape:window-y="29"
   inkscape:window-maximized="0"
   inkscape:current-layer="g16" />
<g
   id="g18">
	<g
   id="g16">
		<path
   d="M175.205,239.62c0.127-1.965-0.533-3.902-1.833-5.381l-58.84-66.941c-1.3-1.479-3.135-2.381-5.102-2.508    c-1.975-0.126-3.902,0.533-5.381,1.833c-27.037,23.766-49.479,51.794-66.706,83.305c-0.944,1.729-1.165,3.762-0.611,5.651    c0.554,1.89,1.836,3.483,3.565,4.427l78.205,42.748c1.131,0.619,2.352,0.912,3.557,0.912c2.627,0,5.174-1.398,6.523-3.866    c11.386-20.828,26.229-39.359,44.114-55.08C174.178,243.422,175.08,241.587,175.205,239.62z"
   id="path2" />
		<path
   d="M201.462,214.829c1.334,2.515,3.907,3.948,6.568,3.948c1.174,0,2.365-0.279,3.473-0.867    c20.962-11.117,43.512-18.371,67.025-21.561c4.064-0.551,6.913-4.293,6.362-8.358l-11.979-88.316    c-0.551-4.064-4.304-6.909-8.358-6.362c-35.708,4.843-69.949,15.857-101.772,32.736c-3.623,1.922-5.002,6.416-3.082,10.041    L201.462,214.829z"
   id="path4"
   style="fill:#000000;opacity:0.4" />
		<path
   d="M105.785,334.345l-86.017-23.338c-1.901-0.514-3.929-0.255-5.638,0.725s-2.958,2.598-3.475,4.499    C3.586,342.295,0,369.309,0,396.523c0,4.657,0.111,9.329,0.342,14.284c0.185,3.981,3.468,7.083,7.414,7.083    c0.116,0,0.234-0.002,0.35-0.008l89.031-4.113c1.967-0.09,3.82-0.96,5.145-2.415c1.327-1.455,2.022-3.38,1.93-5.347    c-0.155-3.341-0.23-6.444-0.23-9.484c0-18.02,2.365-35.873,7.029-53.066C112.082,339.499,109.743,335.42,105.785,334.345z"
   id="path6" />
		<path
   d="M438.731,120.745c-32.411-15.625-67.04-25.308-102.925-28.786c-1.972-0.198-3.918,0.408-5.439,1.659    c-1.521,1.252-2.481,3.056-2.671,5.018l-8.593,88.712c-0.396,4.082,2.594,7.713,6.677,8.108    c23.652,2.291,46.463,8.669,67.8,18.954c1.015,0.49,2.118,0.738,3.225,0.738c0.826,0,1.654-0.139,2.45-0.416    c1.859-0.649,3.385-2.012,4.24-3.786l38.7-80.287C443.978,126.965,442.427,122.525,438.731,120.745z"
   id="path8"
   style="fill:#000000;opacity:0.4" />
		<path
   d="M569.642,245.337c0.48-1.911,0.184-3.932-0.828-5.624c-18.432-30.835-41.933-57.983-69.848-80.686    c-1.529-1.242-3.48-1.824-5.447-1.627c-1.959,0.203-3.758,1.174-5,2.702l-56.237,69.144c-1.242,1.529-1.828,3.488-1.625,5.447    c0.201,1.959,1.173,3.758,2.702,5.002c18.47,15.019,34.015,32.975,46.205,53.369c1.392,2.326,3.855,3.618,6.383,3.618    c1.297,0,2.61-0.34,3.803-1.054l76.501-45.728C567.94,248.889,569.16,247.248,569.642,245.337z"
   id="path10"
   style="fill:#000000;opacity:0.4" />
		<path
   d="M598.044,304.939c-1.228-3.915-5.397-6.096-9.308-4.867l-85.048,26.648c-3.915,1.226-6.093,5.393-4.867,9.306    c6.104,19.486,9.199,39.839,9.199,60.494c0,3.041-0.076,6.144-0.23,9.484c-0.092,1.967,0.602,3.892,1.93,5.347    c1.327,1.456,3.178,2.325,5.145,2.415l89.031,4.113c0.118,0.005,0.234,0.008,0.35,0.008c3.944,0,7.228-3.103,7.414-7.083    c0.229-4.955,0.342-9.627,0.342-14.284C612,365.306,607.306,334.494,598.044,304.939z"
   id="path12"
   style="fill:#000000;opacity:0.4" />
		<path
   d="m 305.83701,380.85406 c -1.28099,-0.004 -2.55511,0.0344 -3.82431,0.0986 L 181.57549,309.40824 c -2.94779,-1.7538 -6.69807,-1.32798 -9.17914,1.03763 -2.48305,2.36361 -3.08817,6.08982 -1.48319,9.11662 l 65.44691,123.55069 c -0.24908,2.37527 -0.38524,4.77387 -0.39245,7.19386 -0.0555,18.60792 7.13833,36.12245 20.25604,49.31862 13.11871,13.19717 30.59102,20.4953 49.19894,20.55078 18.60792,0.0555 36.12245,-7.14032 49.31862,-20.25704 13.19717,-13.1177 20.4943,-30.58903 20.54978,-49.19694 0.0555,-18.60792 -7.13833,-36.12245 -20.25604,-49.31862 -13.11771,-13.19617 -30.59103,-20.4943 -49.19795,-20.54978 z"
   id="path14"
   inkscape:connector-curvature="0" />
	</g>
</g>
<g
   id="g20">
</g>
<g
   id="g22">
</g>
<g
   id="g24">
</g>
<g
   id="g26">
</g>
<g
   id="g28">
</g>
<g
   id="g30">
</g>
<g
   id="g32">
</g>
<g
   id="g34">
</g>
<g
   id="g36">
</g>
<g
   id="g38">
</g>
<g
   id="g40">
</g>
<g
   id="g42">
</g>
<g
   id="g44">
</g>
<g
   id="g46">
</g>
<g
   id="g48">
</g>
</svg>