<svg width="0" height="0" class="hidden">
  <symbol xmlns="http://www.w3.org/2000/svg" viewBox="0 -61 512 512" id="off">
    <path d="M263.339 9a186 186 0 1 0 186 186 186.21 186.21 0 0 0-186-186zm0 360a174 174 0 1 1 174-174 174.198 174.198 0 0 1-174 174z"></path>
    <path d="M301.139 93.804a6 6 0 1 0-4.2 11.238 96 96 0 1 1-67.854.252 6.002 6.002 0 0 0-4.284-11.214 108 108 0 1 0 76.338-.276z"></path>
    <path d="M263.339 183a6 6 0 0 0 6-6V75a6 6 0 0 0-12 0v102a6 6 0 0 0 6 6z"></path>
  </symbol>
  <symbol xmlns="http://www.w3.org/2000/svg" viewBox="0 -61 512 512" id="speed_high">
    <path d="M182 225c0 90.98 74.02 165 165 165s165-74.02 165-165c0-85.926-66.023-156.707-150-164.313V30h30V0h-90v30h30v30.688C248.023 68.293 182 139.073 182 225zm300 0c0 74.438-60.563 135-135 135s-135-60.563-135-135S272.563 90 347 90s135 60.563 135 135zm0 0"></path>
    <path d="M332 120v120h120v-30h-90v-90zM30 300h122v30H30zm0 0"></path>
  </symbol>
  <symbol viewBox="0 -61 512 512" xmlns="http://www.w3.org/2000/svg" id="speed_low">
    <path d="M182 225c0 90.98 74.02 165 165 165s165-74.02 165-165c0-85.926-66.023-156.707-150-164.313V30h30V0h-90v30h30v30.688C248.023 68.293 182 139.073 182 225zm300 0c0 74.438-60.563 135-135 135s-135-60.563-135-135S272.563 90 347 90s135 60.563 135 135zm0 0"></path>
    <path d="M332 120v120h120v-30h-90v-90zM0 210h122v30H0zm30-90h122v30H30zm0 180h122v30H30zm0 0"></path>
  </symbol>
  <symbol xmlns="http://www.w3.org/2000/svg" viewBox="0 -61 512 512" id="speed_med">
    <path d="M182 225c0 90.98 74.02 165 165 165s165-74.02 165-165c0-85.926-66.023-156.707-150-164.313V30h30V0h-90v30h30v30.688C248.023 68.293 182 139.073 182 225zm300 0c0 74.438-60.563 135-135 135s-135-60.563-135-135S272.563 90 347 90s135 60.563 135 135zm0 0"></path>
    <path d="M332 120v120h120v-30h-90v-90zM0 210h122v30H0zm30 90h122v30H30zm0 0"></path>
  </symbol>
</svg>
